<svg width="200" height="200" xmlns="http://www.w3.org/2000/svg">
 <!-- Created with Method Draw - http://github.com/duopixel/Method-Draw/ -->
 <g>
  <title>background</title>
  <rect fill="#fff" id="canvas_background" height="202" width="202" y="-1" x="-1"/>
  <g display="none" overflow="visible" y="0" x="0" height="100%" width="100%" id="canvasGrid">
   <rect fill="url(#gridpattern)" stroke-width="0" y="0" x="0" height="100%" width="100%"/>
  </g>
 </g>
 <g>
  <title>Layer 1</title>
  <path stroke="#444444" d="m3.70547,171.69836c-0.47637,-1.90641 -0.47637,-6.35468 -0.47637,-22.24139c0,-10.16749 0.11662,-15.90613 -0.47637,-21.60592c-0.39833,-3.8287 -1.66614,-5.67206 -1.90549,-8.89655c-0.04694,-0.63238 0,-1.90641 0,-2.54188c0,-0.63546 -0.0592,-4.45073 0,-5.7192c0.23865,-5.11342 1.75841,-8.94219 2.38186,-12.07391c0.7733,-3.88441 1.94317,-8.2447 2.85823,-12.07389c3.47845,-14.55598 5.71007,-26.46867 6.66921,-37.49263c0.60412,-6.94354 0,-10.16749 0,-11.43843c0,-0.63547 0.21361,-0.51197 0.95275,-3.17734c0.68145,-2.45735 2.85823,-5.08374 4.76372,-6.35468c1.90549,-1.27093 2.38186,-1.27093 3.81098,-1.90641c0,0 0.25159,-0.07519 0.47637,-0.63547c0.81045,-2.02011 3.33461,-1.90641 3.81098,-1.90641c2.85823,0 6.66921,0 8.09833,0c0.95275,0 2.85824,0 3.3346,0c1.42912,0 1.90549,0 2.85823,0c1.42912,0 2.44126,-0.41868 5.24009,-1.90641c7.32523,-3.89374 12.79388,-8.46144 20.00764,-12.70936c11.33078,-6.67229 15.69072,-7.94227 18.57851,-8.26109c2.37376,-0.26207 5.71647,0 8.5747,0c3.33461,0 7.21493,1.12084 11.9093,5.08374c2.90276,2.45045 4.74394,4.47044 7.14559,8.26109c2.83501,4.47465 5.15742,7.69624 7.62196,12.70937c5.07237,10.31774 4.90325,10.98908 5.24009,11.43843c0.67369,0.89868 1.3484,0.87537 1.90548,1.90641c0.88083,1.63021 1.99411,1.71103 2.85825,2.54187c0.54654,0.52547 0.97002,1.73677 1.42911,1.90641c2.67691,0.98909 4.42963,2.42818 5.24009,4.44828c0.22478,0.56028 1.62865,2.17258 2.38186,3.17734c1.50642,2.00956 6.95175,4.115 10.95656,5.08375c4.6873,1.13385 11.90931,0 19.53126,0c2.38186,0 3.33461,0 3.33461,0c1.42913,1.27093 2.04303,4.38088 2.85823,7.62562c1.72597,6.8699 3.07186,14.49226 3.81099,17.15763c1.36289,4.9147 2.38186,12.07391 3.33459,15.25124c0.95275,3.17734 2.95194,7.55793 5.24011,13.34484c1.98784,5.02732 4.38155,12.00746 7.62195,20.33499c0.9815,2.52232 1.90548,4.44827 1.90548,6.35468c0,1.27093 0,1.90641 0,3.17734c0,0.63547 0.95275,1.90641 0.95275,2.54188c0,2.54188 0.06628,5.7028 0.47638,8.89655c0.5687,4.42894 0.47635,8.89655 0.47635,12.70936c0,1.27095 0,1.90641 0,3.81281c0,0.63547 0,1.27093 0,2.54188c0,1.27093 0,1.90641 0,2.54186c0,1.27095 -1.34547,1.9686 -1.90548,3.17735c-0.25045,0.54055 -0.76746,1.22522 -1.90548,2.54186c-0.80472,0.93102 -0.95275,1.90639 -1.9055,2.54186c-0.95273,0.63544 -1.90548,1.27095 -1.90548,1.27095c-1.90548,1.27095 -2.71793,2.1264 -3.81096,3.17734c-0.86414,0.83084 -2.38188,0.63547 -3.81099,1.27095c-1.42913,0.63547 -3.33461,1.27095 -4.76372,1.27095c-1.42913,0 -3.33461,0 -4.76374,0c-3.33459,0 -7.60217,-0.95272 -11.90929,-1.27095c-12.84238,-0.94885 -15.75656,-0.24319 -16.19665,0c-0.62242,0.34392 -1.42913,1.27095 -2.38188,1.27095c-1.42911,0 -2.85821,0 -3.81096,0c-0.47638,0 -0.95275,0 -1.90548,0c-1.42913,0 -1.94177,-0.24319 -2.38188,0c-0.6224,0.34389 -1.93098,0.34342 -2.85823,0.63544c-1.03669,0.32646 -2.86958,1.53953 -6.19283,1.90642c-2.88778,0.31883 -4.28734,0.63547 -5.71646,0.63547c-0.47638,0 -1.42912,0 -2.38187,0c-0.95274,0 -1.42912,0 -3.3346,0c-1.42912,0 -3.81098,0 -5.24009,0c-2.38187,0 -3.33461,0 -5.2401,0c-1.42912,0 -2.85823,0 -4.28735,0c-1.90548,0 -4.76372,0 -6.66921,0c-2.85823,0 -5.24009,0 -7.62195,0c-1.42912,0 -1.90549,0 -2.85823,0c-0.95274,0 -1.90549,0.63544 -2.38186,0.63544c-0.47638,0 -1.90549,0 -1.90549,0c-0.95274,0 -1.90549,0 -2.85823,0c-0.47638,0 -0.95274,0 -2.85823,0c-0.95274,0 -1.91163,-0.1018 -2.38186,0c-1.48697,0.3219 -2.05318,0.21446 -3.33461,1.27095c-0.57307,0.47247 -2.38186,0.63547 -3.81098,0.63547c0,0 -1.76516,0.22001 -2.85823,1.27095c-0.86414,0.83084 -2.23582,0.927 -2.85823,1.27092c-0.88022,0.48637 -1.6134,0.58311 -2.85823,1.27095c-0.88022,0.48637 -1.90548,0.63547 -2.85823,0.63547c0,0 -0.95274,0 -1.90548,0c-0.95274,0 -3.33461,0 -3.81098,0c-0.95275,0 -1.42912,0 -2.38187,0c-0.47637,0 -1.42912,0 -1.90548,0c-0.95275,0 -1.42912,0 -1.90549,0c-1.90549,0 -2.38186,0 -2.85823,0c-0.47637,0 -1.42912,0 -2.38186,0c-0.47638,0 -1.79167,-0.26428 -3.3346,-1.27095c-1.35324,-0.88291 -2.38186,-1.27095 -2.85823,-1.27095c-0.95275,0 -1.90549,0 -2.38186,0c-0.95274,0 -1.42912,0 -2.85823,-0.63544c-1.42912,-0.63547 -3.3346,-1.27095 -3.81098,-1.27095c-0.95275,0 -1.07497,-0.90166 -3.3346,-1.90642c-0.45193,-0.20097 -0.95275,0 -2.38186,-0.63544c0,0 -1.09227,0.44936 -1.42912,0c-0.33685,-0.44936 0,-1.27095 0,-1.90642c0,-0.63547 0.03257,-0.68211 -0.47637,-1.27092c-1.7994,-2.08179 -3.12414,-4.77827 -4.76372,-6.3547c-0.86414,-0.83084 -2.38186,-2.54186 -2.85823,-2.54186c0,0 0,-0.63547 0,-0.63547c0,-1.27093 0,-1.90641 0,-2.54186c0,0 0,-0.63547 0,-1.27095c0,-0.63546 0,-1.27093 0,-1.27093l0,-0.63547l0,-0.63546" id="svg_1" stroke-width="1.5" fill="#666666"/>
  <path d="m169.29492,141.96286c0,0 0,0.33557 -0.33557,0.67114c-0.33556,0.33557 -1.0067,1.67784 -1.0067,2.34898c0,1.34227 -0.33557,2.68454 -0.33557,3.35568c0,0.33557 0.10316,0.73357 -0.33557,1.34227c-0.27748,0.38499 -0.67113,0.33557 -0.67113,1.00671c0,0.33557 0,0.67113 -0.33557,0.67113c-0.33557,0 0.06004,0.43581 -1.00671,1.00671c-0.29585,0.15834 -0.67113,0.33557 -0.67113,0.33557c-0.67114,0.33556 -1.34229,1.0067 -1.67784,1.34227c-0.33557,0.33557 -0.72459,0.87604 -1.67786,1.34227c-1.08687,0.53159 -1.78188,1.11996 -2.68454,1.67784c-0.40369,0.2495 -0.86772,-0.13899 -1.34229,0.33557c-0.47456,0.47456 -0.41429,1.0578 -0.67113,1.67784c-0.18161,0.43845 -0.3183,0.77138 -0.67114,1.34229c-0.39449,0.63828 -0.19656,1.20328 -0.67113,1.67784c-0.47456,0.47456 -0.67114,0.67113 -1.34229,1.34227l-0.33557,0l0,0.33557" id="svg_3" stroke-width="1.5" stroke="#444444" fill="none"/>
  <path d="m44.12782,35.92317c0.33557,0 1.00671,0 2.68455,0c0.67113,0 2.32688,0.04842 3.02011,0.33557c0.98038,0.40609 1.9926,0.50278 4.02682,0.67113c1.3377,0.11071 2.6254,0.16317 3.35569,0.33557c0.65318,0.1542 0.71085,-0.15834 1.00671,0c1.06675,0.5709 0.76942,1.10499 1.00671,1.34227c0.47457,0.47457 0.67114,1.34227 0.67114,1.67785c0,0.33557 0.09829,0.43385 0.33557,0.67113c0.23728,0.23728 0.78731,0.23673 1.34227,1.00671c0.43874,0.60872 1.0211,0.5739 1.34227,0.67114c1.158,0.35061 1.61871,1.16988 2.34898,1.34227c0.32658,0.0771 1.4721,0.97906 2.34898,1.34227c0.93008,0.38525 1.63709,0.16559 2.68456,0.33557c0.33123,0.05375 0.93858,0.42165 1.34227,0.67114c0.90268,0.55789 1.33014,0.37445 2.34898,0.67114c1.3284,0.38683 2.01341,0.33557 2.68455,0.67113c0,0 0.56796,0.73356 1.00671,1.34228c0.27749,0.38499 0.81699,1.05737 1.67784,1.67784c0.27223,0.19621 0.67114,0.33557 1.34228,1.34227c0,0 0.01795,0.18138 0.67113,0.33557c0.73029,0.17239 0.67114,1.00671 1.00671,1.00671l0.33557,0l0,0l0.33556,0" id="svg_4" stroke-width="1.5" stroke="#444444" fill="none"/>
  <path d="m21.64472,151.35878c0,0 0,0 0,0.33557c0,1.00671 -0.09012,2.37479 0.33557,3.69125c0.55599,1.71944 0.69831,2.72046 1.00671,4.02682c0.34479,1.46056 1.11098,2.37592 1.34227,3.35568c0.1724,0.73029 0.90354,2.07584 1.34228,2.68456c0.83245,1.15497 1.11995,2.11745 1.67784,3.02013c0.24949,0.40369 1.74724,1.95053 2.34898,2.68454c0.76707,0.93568 1.54826,1.44194 2.34898,2.34898c0.49659,0.56253 0.80096,0.97906 1.67785,1.34227c0.93008,0.38524 2.01341,0 2.68455,0c0.67114,0 1.67785,0 2.68455,0c1.00671,0 1.67784,0 2.34898,0c0.33557,0 0.67113,0 1.34227,0c0.33557,0 0.67114,0 1.00671,0c0.33557,0 0.67114,0 0.67114,0c0.33557,0 1.0067,0 1.34227,0c0,0 0.33557,0 0.67113,0c0.67114,0 1.05779,0.07874 1.67785,0.33557c0.43844,0.18161 0.67114,0.33557 1.34227,0.33557c0.33557,0 0.33557,0.33557 0.33557,0.67114l0,0.33556" id="svg_5" stroke-width="1.5" stroke="#444444" fill="none"/>
  <text xml:space="preserve" text-anchor="start" font-family="Helvetica, Arial, sans-serif" font-size="24" id="svg_6" y="108.32677" x="75.33571" stroke-width="0" stroke="#ffffff" fill="#ffffff">rock</text>
 </g>
</svg>