<svg width="200" height="200" xmlns="http://www.w3.org/2000/svg" stroke="null" style="vector-effect: non-scaling-stroke;">
 <!-- Created with Method Draw - http://github.com/duopixel/Method-Draw/ -->
 <g stroke="null">
  <title stroke="null">background</title>
  <rect stroke="null" fill="#fff" id="canvas_background" height="202" width="202" y="-1" x="-1"/>
 </g>
 <g stroke="null">
  <title stroke="null">Layer 1</title>
  <line stroke="#444444" stroke-linecap="null" stroke-linejoin="null" id="svg_4" y2="70.7482" x2="118.43065" y1="98.12044" x1="100.54744" fill-opacity="null" stroke-width="10" fill="none"/>
  <line stroke="#444444" stroke-linecap="null" stroke-linejoin="null" id="svg_5" y2="71.47812" x2="81.93432" y1="96.66059" x1="102.0073" fill-opacity="null" stroke-width="10" fill="none"/>
  <line stroke="#444444" stroke-linecap="null" stroke-linejoin="null" id="svg_6" y2="202.13498" x2="107.11678" y1="86.07665" x1="112.22627" fill-opacity="null" stroke-width="8" fill="none"/>
  <line stroke="#444444" stroke-linecap="null" stroke-linejoin="null" id="svg_7" y2="202.13499" x2="103.46715" y1="87.53651" x1="89.23358" fill-opacity="null" stroke-width="8" fill="none"/>
  <line stroke-linecap="null" stroke-linejoin="null" id="svg_13" y2="75.12775" x2="115.8759" y1="97.02555" x1="109.67153" fill-opacity="null" stroke-width="8" stroke="#444444" fill="none"/>
  <line stroke-linecap="null" stroke-linejoin="null" id="svg_14" y2="74.39783" x2="81.93432" y1="96.29563" x1="92.15329" fill-opacity="null" stroke-width="8" stroke="#444444" fill="none"/>
  <line stroke-linecap="null" stroke-linejoin="null" id="svg_15" y2="72.93798" x2="119.8905" y1="98.12044" x1="110.40145" fill-opacity="null" stroke-width="8" stroke="#444444" fill="none"/>
  <ellipse stroke="#000000" ry="34.854" rx="26.09488" id="svg_2" cy="38.854" cx="130.85406" stroke-width="8" fill="none"/>
  <ellipse stroke="#000000" ry="34.854" rx="26.09488" id="svg_3" cy="38.85399" cx="69.87587" stroke-width="8" fill="none"/>
  <path d="m103.83212,99.5803c0,0.72992 -0.12598,1.52444 -0.72993,3.28467c-0.26485,0.77191 -0.72993,1.82481 -0.72993,3.64963c0,0.36497 0,1.09489 0,1.45985c0,0.36497 0,1.09489 0,1.45985c0,0 -0.71367,-0.13346 -1.45985,-3.64963c-0.75764,-3.57013 -0.36496,-6.9343 -0.36496,-9.12408c0,-0.72993 -0.43441,-2.14654 -1.09489,-3.28467c-0.81923,-1.41167 -0.94671,-1.64391 -1.82481,-3.28468c-0.48708,-0.91013 -0.983,-1.26234 -1.45985,-1.45985c-0.33718,-0.13966 -0.36496,0.36497 -0.36496,0.36497c0,0.36496 0,1.09489 0,1.45985c0,0.72993 -0.72993,1.45985 -0.72993,2.55474c0,1.82481 0,2.91971 0,4.37956c0,0.36496 0,0.72993 0,1.45985c0,0.36496 -0.1677,1.11441 0,1.82481c0.37499,1.5885 0.72993,2.18978 1.09489,2.91971c0.36497,0.72993 0.53806,1.14939 0.72993,1.45985c0.42904,0.6942 1.09489,1.09489 1.09489,1.09489c0.36497,0.36496 1.32019,0.75771 1.45985,1.09489c0.19752,0.47685 0.47186,0.83682 0.72993,1.09489c0.25807,0.25807 0.72993,0 0.72993,0c0.36497,0 0.58019,-0.44999 1.45985,-1.82482c1.25948,-1.96846 3.3263,-4.71573 5.83942,-8.39415c0.74232,-1.08653 1.6273,-2.0779 1.82481,-2.55475c0.27933,-0.67436 0.36496,-1.82482 1.09489,-2.55474c0.36497,-0.36496 1.09489,-1.09489 1.09489,-1.45985c0,-0.36496 -0.36497,-0.36496 -0.72993,-0.36496c-0.36497,0 -0.72993,0 -1.45985,0c-0.36497,0 -1.09489,0 -1.82481,0c0,0 -1.1494,-0.19187 -1.45985,0c-0.69421,0.42904 -0.89738,0.983 -1.09489,1.45985c-0.27933,0.67436 -0.25707,1.83014 -0.36496,2.9197c-0.18337,1.85191 -0.36497,3.64964 -0.36497,5.10949c0,0.72993 0,1.45985 -0.36496,2.55474c-0.36497,1.09489 -0.24456,1.8298 -0.36497,3.28467c-0.18311,2.21243 -0.36496,3.64964 -0.36496,4.74453c0,1.45985 0,3.28467 0,4.0146c0,0 -0.36497,1.09489 -0.36497,2.18978c0,0.72993 0,1.82481 0,3.28467c0,0.72993 0,1.82481 0,3.28467c0,1.09489 0,1.82481 0,2.91971c0,0 0,1.09489 0,1.82481c0,0.72993 0,2.18977 0,2.91971c0,1.45985 0,2.18977 0,4.0146c0,0.72992 0.27934,1.5154 0,2.18977c-0.39503,0.95369 -0.45059,1.51541 -0.72992,2.18977c-0.19752,0.47685 -0.54506,1.41553 -0.72993,2.55475c-0.11692,0.72049 -0.1801,2.14545 -0.36497,3.28467c-0.23384,1.44101 0,2.18979 0,3.64963c0,0.72993 0,1.09489 0,1.82483c0,0.72992 0,1.09488 0,1.82481c0,0 0,1.09489 0,1.45985c0,0.36496 0,1.45985 0,1.45985c0,0.72992 0,1.09488 0,1.82481c0,0.72992 0,1.09489 0,1.09489c0,0.36496 0,0.72992 0,1.45985c0,1.09488 0,1.45984 0,2.18977c0,0.36496 0,0.72992 0,0.72992c0.36497,0.36497 0.72993,0.72993 0.72993,1.45985c0,0 0,0.36497 0,1.09489c0,0.36496 0.12318,0.4781 0.72993,1.45985c0.27135,0.43904 0.72993,0.36496 0.72993,0.36496c0,0.36496 0,0.72993 0,1.45985c0,0.36496 0,0.72993 0,1.09489c0,0.36496 0,0.72992 0,1.09489c0,0.36496 0,0.72992 0,0.72992c0,0.36496 0,1.09489 0,1.45985c0,0 0,0.36496 0,0.72992c0,0.36497 0,0.72993 0,0.72993c0,0.36496 0,0.72992 0,1.09489c0,0.36496 0,0.72992 0,1.82481c0,0 0,0.36496 0,0.72992c0,0.36496 0,0.72993 0,0.36496c0,-0.36496 0,-1.82481 0,-3.28467c0,-1.09488 0,-1.82481 0,-2.18977c0,-1.45985 0,-2.55475 0,-4.0146c0,-1.45985 0,-3.28467 0,-3.64963c0,-0.72992 0,-1.09489 0,-2.18977c0,-0.72993 0,-1.82483 0,-2.91971c0,-1.09489 -0.17538,-2.20393 0,-3.28467c0.5546,-3.41763 0.95103,-5.48157 1.09489,-6.93431c0.18337,-1.8519 0.57941,-5.48065 0.72993,-7.29927c0.18311,-2.21242 0.36497,-4.74452 0.36497,-5.8394c0,-1.45985 0,-2.18979 0,-4.37956c0,-1.82481 0.13378,-3.29288 0,-4.37956c-0.18386,-1.49351 -0.53241,-1.71293 -0.72993,-2.18978c-0.27933,-0.67437 -0.40069,-2.1257 -1.09489,-2.55474c-0.31046,-0.19187 -1.01818,-1.12351 -1.45985,-2.18978c-0.3123,-0.75397 -1.04057,-2.00194 -1.82482,-3.64963c-0.64671,-1.35873 -1.13718,-2.54155 -1.45985,-3.64964c-0.42072,-1.44477 -0.36496,-2.55474 -0.36496,-3.64964c0,-1.09489 0,-1.82481 0,-2.55474c0,-0.72993 -0.1069,-1.56675 -0.36497,-1.82482c-0.25806,-0.25806 -0.36496,-0.36496 -0.36496,0c0,0 0.27933,0.78549 0,1.45985c-0.19752,0.47685 -0.54682,2.89706 -0.72993,5.10949c-0.12041,1.45488 0,2.91971 0,3.64964c0,1.09489 0,1.45985 0,1.82481c0,0.72993 0,1.45985 0,1.82481c0,0.36497 0,1.09489 0,1.82482c0,0.36496 0,0.72993 0,1.45985c0,0.36496 0.36496,1.09488 0.72993,1.45985c0.36497,0.36497 0.36496,1.09489 0.72993,1.82482c0,0 0.16744,0.25307 0.36496,0.72993c0.13966,0.33718 0,1.09489 0,1.45985c0,0.72993 -0.27934,0.78549 0,1.45985c0.19752,0.47685 0.66586,0.4007 1.09489,1.09489c0.19187,0.31046 0.36496,1.09489 0.36496,1.09489c0,0.36496 0,0.72992 0,1.09488c0,0.36497 0,0.36497 0,0.72993c0,0.36496 0,0.72992 0,1.09489c0,0 0,0.36496 0,0.72992c0,0.36496 0,0.72992 0,1.09489c0,0.72992 0,1.09488 0,1.45985c0,0.36496 0,0.72992 0,1.09488l0,0l0,0.36497l0,0.36496" id="svg_16" fill-opacity="null" stroke-opacity="null" stroke-width="8" stroke="#444444" fill="none"/>
  <ellipse ry="5.29197" rx="5.29197" id="svg_17" cy="102.31752" cx="101.09489" stroke-width="8" stroke="#000000" fill="#000000"/>
  <text transform="rotate(-0.08481011539697647 44.973701477042354,133.22737121582097) " xml:space="preserve" text-anchor="start" font-family="Helvetica, Arial, sans-serif" font-size="24" id="svg_18" y="141.55108" x="1.6424" stroke-width="0" stroke="#000000" fill="#000000">scissors</text>
 </g>
</svg>